<svg xmlns="http://www.w3.org/2000/svg" version="1.0" width="64" height="64">
    <path style="fill:#808080; stroke:none;" d="M0 0L0 64L64 64L64 60L4 60L4 0L0 0z"/>
    <path style="fill:#c0c0c0; stroke:none;" d="M4 0L4 60L64 60L64 0L4 0z"/>
    <path style="fill:#000000; stroke:none;" d="M32 4L32 12L24 12L24 16L20 16L20 12L16 12L16 16L20 16L20 20L16 20L16 28L8 28L8 32L16 32L16 40L20 40L20 44L16 44L16 48L20 48L20 44L24 44L24 48L32 48L32 56L36 56L36 48L44 48L44 44L48 44L48 48L52 48L52 44L48 44L48 40L52 40L52 32L60 32L60 28L52 28L52 20L48 20L48 16L52 16L52 12L48 12L48 16L44 16L44 12L36 12L36 4L32 4z"/>
    <path style="fill:#ffffff; stroke:none;" d="M24 20L24 28L32 28L32 20L24 20z"/>
</svg>