<svg xmlns="http://www.w3.org/2000/svg" version="1.0" width="104" height="104">
    <path style="fill:#000000; stroke:none;" d="M0 0L0 104L4 104L4 4L104 4L104 0L0 0z"/>
    <path style="fill:#808080; stroke:none;" d="M4 4L4 104L104 104L104 4L4 4z"/>
    <path style="fill:#c0c0c0; stroke:none;" d="M12 12L12 100L100 100L100 12L12 12z"/>
    <path style="fill:#000000; stroke:none;" d="M44 20L44 24L36 24L36 28L32 28L32 32L28 32L28 36L24 36L24 44L20 44L20 64L24 64L24 72L28 72L28 76L32 76L32 80L36 80L36 84L44 84L44 88L64 88L64 84L72 84L72 80L76 80L76 76L80 76L80 72L84 72L84 64L88 64L88 44L84 44L84 36L80 36L80 32L76 32L76 28L72 28L72 24L64 24L64 20L44 20z"/>
    <path style="fill:#ffff00; stroke:none;" d="M44 24L44 28L36 28L36 32L32 32L32 36L28 36L28 44L24 44L24 64L28 64L28 72L32 72L32 76L36 76L36 80L44 80L44 84L64 84L64 80L72 80L72 76L76 76L76 72L80 72L80 64L84 64L84 44L80 44L80 36L76 36L76 32L72 32L72 28L64 28L64 24L44 24z"/>
    <path style="fill:#000000; stroke:none;" d="M40 40L40 48L48 48L48 40L40 40M60 40L60 48L68 48L68 40L60 40M36 60L36 64L40 64L40 68L44 68L44 72L64 72L64 68L68 68L68 64L72 64L72 60L68 60L68 64L64 64L64 68L44 68L44 64L40 64L40 60L36 60z"/>
</svg>