<svg xmlns="http://www.w3.org/2000/svg" version="1.0" width="104" height="104">
    <path style="fill:#000000; stroke:none;" d="M0 0L0 104L4 104L4 4L104 4L104 0L0 0z"/>
    <path style="fill:#ffffff; stroke:none;" d="M4 4L4 96L8 96L8 92L12 92L12 12L92 12L92 8L96 8L96 4L4 4z"/>
    <path style="fill:#c0c0c0; stroke:none;" d="M96 4L96 8L92 8L92 12L12 12L12 92L8 92L8 96L4 96L4 100L8 100L8 96L12 96L12 92L92 92L92 12L96 12L96 8L100 8L100 4L96 4z"/>
    <path style="fill:#808080; stroke:none;" d="M100 4L100 8L96 8L96 12L92 12L92 92L12 92L12 96L8 96L8 100L4 100L4 104L104 104L104 4L100 4z"/>
    <path style="fill:#000000; stroke:none;" d="M44 20L44 24L36 24L36 28L32 28L32 32L28 32L28 36L24 36L24 44L20 44L20 64L24 64L24 72L28 72L28 76L32 76L32 80L36 80L36 84L44 84L44 88L64 88L64 84L72 84L72 80L76 80L76 76L80 76L80 72L84 72L84 64L88 64L88 44L84 44L84 36L80 36L80 32L76 32L76 28L72 28L72 24L64 24L64 20L44 20z"/>
    <path style="fill:#ffff00; stroke:none;" d="M44 24L44 28L36 28L36 32L32 32L32 36L28 36L28 44L24 44L24 52L28 52L28 56L24 56L24 64L28 64L28 72L32 72L32 76L36 76L36 80L44 80L44 84L64 84L64 80L72 80L72 76L76 76L76 72L80 72L80 64L84 64L84 56L80 56L80 52L84 52L84 44L80 44L80 36L76 36L76 32L72 32L72 28L64 28L64 24L44 24z"/>
    <path style="fill:#000000; stroke:none;" d="M36 40L36 44L32 44L32 48L28 48L28 52L32 52L32 48L36 48L36 52L40 52L40 56L48 56L48 52L52 52L52 44L56 44L56 52L60 52L60 56L68 56L68 52L72 52L72 48L76 48L76 52L80 52L80 48L76 48L76 44L72 44L72 40L36 40z"/>
    <path style="fill:#808000; stroke:none;" d="M36 52L36 56L40 56L40 52L36 52M68 52L68 56L72 56L72 52L68 52z"/>
    <path style="fill:#000000; stroke:none;" d="M40 64L40 68L44 68L44 72L64 72L64 68L68 68L68 64L64 64L64 68L44 68L44 64L40 64z"/>
</svg>