<svg xmlns="http://www.w3.org/2000/svg" version="1.0" width="64" height="64">
    <path style="fill:#ffffff; stroke:none;" d="M0 0L0 64L64 0L0 0z"/>
    <path style="fill:#919191; stroke:none;" d="M64 64L64 0L0 64L64 64z"/>
    <path style="fill:#c0c0c0; stroke:none;" d="M8 8L8 56L56 56L56 8L8 8z"/>
    <path style="fill:#ff0000; stroke:none;" d="M28 12L28 16L20 16L20 20L16 20L16 24L20 24L20 28L28 28L28 32L36 32L36 12L28 12z"/>
    <path style="fill:#000000; stroke:none;" d="M32 32L32 40L24 40L24 44L16 44L16 52L48 52L48 44L40 44L40 40L36 40L36 32L32 32z"/>
</svg>