<svg xmlns="http://www.w3.org/2000/svg" version="1.0" width="76" height="76">
    <path style="fill:#424a52; stroke:none;" d="M0 0L0 68L8 68L8 64L12 64L12 60L16 60L16 56L20 56L20 64L24 64L24 72L28 72L28 76L36 76L36 72L40 72L40 64L36 64L36 56L32 56L32 52L48 52L48 44L44 44L44 40L40 40L40 36L36 36L36 32L32 32L32 28L28 28L28 24L24 24L24 20L20 20L20 16L16 16L16 12L12 12L12 8L8 8L8 4L4 4L4 0L0 0z"/>
    <path style="fill:#7bcef7; stroke:none;" d="M4 8L4 64L8 64L8 60L12 60L12 56L16 56L16 52L20 52L20 56L24 56L24 64L28 64L28 72L36 72L36 64L32 64L32 56L28 56L28 48L44 48L44 44L40 44L40 40L36 40L36 36L32 36L32 32L28 32L28 28L24 28L24 24L20 24L20 20L16 20L16 16L12 16L12 12L8 12L8 8L4 8z"/>
</svg>
