<svg xmlns="http://www.w3.org/2000/svg" version="1.0" width="52" height="92">
    <path style="fill:#000000; stroke:none;" d="M0 0L0 92L52 92L52 0L0 0z"/>
    <path style="fill:#800000; stroke:none;" d="M12 4L12 8L16 8L16 12L20 12L20 16L24 16L24 12L28 12L28 16L32 16L32 12L36 12L36 8L40 8L40 4L36 4L36 8L32 8L32 4L28 4L28 8L24 8L24 4L20 4L20 8L16 8L16 4L12 4z"/>
    <path style="fill:#ff0000; stroke:none;" d="M4 8L4 44L8 44L8 48L12 48L12 52L40 52L40 56L36 56L36 76L40 76L40 80L44 80L44 84L48 84L48 48L44 48L44 44L48 44L48 8L44 8L44 12L40 12L40 16L36 16L36 36L40 36L40 40L12 40L12 36L16 36L16 16L12 16L12 12L8 12L8 8L4 8z"/>
    <path style="fill:#000000; stroke:none;" d="M20 8L20 12L24 12L24 8L20 8M28 8L28 12L32 12L32 8L28 8M8 40L8 44L12 44L12 40L8 40M40 40L40 44L44 44L44 40L40 40z"/>
    <path style="fill:#800000; stroke:none;" d="M4 48L4 52L8 52L8 56L4 56L4 60L8 60L8 64L4 64L4 68L8 68L8 72L4 72L4 76L8 76L8 80L12 80L12 76L16 76L16 72L12 72L12 68L16 68L16 64L12 64L12 60L16 60L16 56L12 56L12 52L8 52L8 48L4 48z"/>
    <path style="fill:#000000; stroke:none;" d="M8 48L8 52L12 52L12 48L8 48M40 48L40 52L44 52L44 48L40 48M8 56L8 60L12 60L12 56L8 56M8 64L8 68L12 68L12 64L8 64M8 72L8 76L12 76L12 72L8 72z"/>
    <path style="fill:#800000; stroke:none;" d="M20 76L20 80L16 80L16 84L12 84L12 88L16 88L16 84L20 84L20 88L24 88L24 84L28 84L28 88L32 88L32 84L36 84L36 88L40 88L40 84L36 84L36 80L32 80L32 76L28 76L28 80L24 80L24 76L20 76M4 80L4 84L8 84L8 80L4 80z"/>
    <path style="fill:#000000; stroke:none;" d="M20 80L20 84L24 84L24 80L20 80M28 80L28 84L32 84L32 80L28 80z"/>
</svg>