<svg xmlns="http://www.w3.org/2000/svg" version="1.0" width="52" height="92">
    <path style="fill:#000000; stroke:none;" d="M0 0L0 92L52 92L52 0L0 0z"/>
    <path style="fill:#ff0000; stroke:none;" d="M8 4L8 8L12 8L12 12L16 12L16 16L36 16L36 36L40 36L40 40L44 40L44 44L48 44L48 8L44 8L44 4L8 4z"/>
    <path style="fill:#800000; stroke:none;" d="M4 8L4 12L8 12L8 16L4 16L4 20L8 20L8 24L4 24L4 28L8 28L8 32L4 32L4 36L8 36L8 40L12 40L12 36L16 36L16 32L12 32L12 28L16 28L16 24L12 24L12 20L16 20L16 16L12 16L12 12L8 12L8 8L4 8z"/>
    <path style="fill:#000000; stroke:none;" d="M8 8L8 12L12 12L12 8L8 8M40 8L40 12L36 12L36 16L40 16L40 12L44 12L44 8L40 8M12 12L12 16L16 16L16 12L12 12M8 16L8 20L12 20L12 16L8 16M8 24L8 28L12 28L12 24L8 24M8 32L8 36L12 36L12 32L8 32z"/>
    <path style="fill:#800000; stroke:none;" d="M4 40L4 44L8 44L8 40L4 40M16 40L16 44L12 44L12 48L16 48L16 52L20 52L20 48L24 48L24 52L28 52L28 48L32 48L32 52L36 52L36 48L40 48L40 44L36 44L36 40L32 40L32 44L28 44L28 40L24 40L24 44L20 44L20 40L16 40z"/>
    <path style="fill:#000000; stroke:none;" d="M16 44L16 48L20 48L20 44L16 44M24 44L24 48L28 48L28 44L24 44M32 44L32 48L36 48L36 44L32 44z"/>
    <path style="fill:#800000; stroke:none;" d="M4 48L4 52L8 52L8 56L4 56L4 60L8 60L8 64L4 64L4 68L8 68L8 72L4 72L4 76L8 76L8 80L4 80L4 84L8 84L8 80L12 80L12 76L16 76L16 72L12 72L12 68L16 68L16 64L12 64L12 60L16 60L16 56L12 56L12 52L8 52L8 48L4 48z"/>
    <path style="fill:#ff0000; stroke:none;" d="M44 48L44 52L40 52L40 56L36 56L36 76L40 76L40 80L44 80L44 84L48 84L48 48L44 48z"/>
    <path style="fill:#000000; stroke:none;" d="M8 56L8 60L12 60L12 56L8 56M8 64L8 68L12 68L12 64L8 64M8 72L8 76L12 76L12 72L8 72z"/>
    <path style="fill:#800000; stroke:none;" d="M20 76L20 80L16 80L16 84L12 84L12 88L16 88L16 84L20 84L20 88L24 88L24 84L28 84L28 88L32 88L32 84L36 84L36 88L40 88L40 84L36 84L36 80L32 80L32 76L28 76L28 80L24 80L24 76L20 76z"/>
    <path style="fill:#000000; stroke:none;" d="M20 80L20 84L24 84L24 80L20 80M28 80L28 84L32 84L32 80L28 80z"/>
</svg>