<svg xmlns="http://www.w3.org/2000/svg" version="1.0" width="52" height="92">
    <path style="fill:#000000; stroke:none;" d="M0 0L0 92L52 92L52 0L0 0z"/>
    <path style="fill:#800000; stroke:none;" d="M12 4L12 8L16 8L16 12L20 12L20 16L24 16L24 12L28 12L28 16L32 16L32 12L36 12L36 8L40 8L40 4L36 4L36 8L32 8L32 4L28 4L28 8L24 8L24 4L20 4L20 8L16 8L16 4L12 4M4 8L4 12L8 12L8 16L4 16L4 20L8 20L8 24L4 24L4 28L8 28L8 32L4 32L4 36L8 36L8 40L4 40L4 44L8 44L8 40L12 40L12 36L16 36L16 32L12 32L12 28L16 28L16 24L12 24L12 20L16 20L16 16L12 16L12 12L8 12L8 8L4 8z"/>
    <path style="fill:#000000; stroke:none;" d="M20 8L20 12L24 12L24 8L20 8M28 8L28 12L32 12L32 8L28 8z"/>
    <path style="fill:#800000; stroke:none;" d="M44 8L44 12L48 12L48 8L44 8M40 12L40 16L36 16L36 20L40 20L40 24L36 24L36 28L40 28L40 32L36 32L36 36L40 36L40 40L44 40L44 44L48 44L48 40L44 40L44 36L48 36L48 32L44 32L44 28L48 28L48 24L44 24L44 20L48 20L48 16L44 16L44 12L40 12z"/>
    <path style="fill:#000000; stroke:none;" d="M8 16L8 20L12 20L12 16L8 16M40 16L40 20L44 20L44 16L40 16M8 24L8 28L12 28L12 24L8 24M40 24L40 28L44 28L44 24L40 24M8 32L8 36L12 36L12 32L8 32M40 32L40 36L44 36L44 32L40 32M8 40L8 44L12 44L12 40L8 40z"/>
    <path style="fill:#ff0000; stroke:none;" d="M12 40L12 44L8 44L8 48L12 48L12 52L40 52L40 48L44 48L44 44L40 44L40 40L12 40z"/>
    <path style="fill:#000000; stroke:none;" d="M40 40L40 44L44 44L44 40L40 40z"/>
    <path style="fill:#800000; stroke:none;" d="M4 48L4 52L8 52L8 56L4 56L4 60L8 60L8 64L4 64L4 68L8 68L8 72L4 72L4 76L8 76L8 80L12 80L12 76L16 76L16 72L12 72L12 68L16 68L16 64L12 64L12 60L16 60L16 56L12 56L12 52L8 52L8 48L4 48z"/>
    <path style="fill:#000000; stroke:none;" d="M8 48L8 52L12 52L12 48L8 48M40 48L40 52L44 52L44 48L40 48z"/>
    <path style="fill:#800000; stroke:none;" d="M44 48L44 52L48 52L48 48L44 48M40 52L40 56L36 56L36 60L40 60L40 64L36 64L36 68L40 68L40 72L36 72L36 76L40 76L40 80L44 80L44 76L48 76L48 72L44 72L44 68L48 68L48 64L44 64L44 60L48 60L48 56L44 56L44 52L40 52z"/>
    <path style="fill:#000000; stroke:none;" d="M8 56L8 60L12 60L12 56L8 56M40 56L40 60L44 60L44 56L40 56M8 64L8 68L12 68L12 64L8 64M40 64L40 68L44 68L44 64L40 64M8 72L8 76L12 76L12 72L8 72M40 72L40 76L44 76L44 72L40 72z"/>
    <path style="fill:#800000; stroke:none;" d="M20 76L20 80L16 80L16 84L12 84L12 88L16 88L16 84L20 84L20 88L24 88L24 84L28 84L28 88L32 88L32 84L36 84L36 88L40 88L40 84L36 84L36 80L32 80L32 76L28 76L28 80L24 80L24 76L20 76M4 80L4 84L8 84L8 80L4 80z"/>
    <path style="fill:#000000; stroke:none;" d="M20 80L20 84L24 84L24 80L20 80M28 80L28 84L32 84L32 80L28 80z"/>
    <path style="fill:#800000; stroke:none;" d="M44 80L44 84L48 84L48 80L44 80z"/>
</svg>