<svg xmlns="http://www.w3.org/2000/svg" version="1.0" width="52" height="92">
    <path style="fill:#000000; stroke:none;" d="M0 0L0 92L52 92L52 0L0 0z"/>
    <path style="fill:#ff0000; stroke:none;" d="M8 4L8 8L4 8L4 44L8 44L8 48L4 48L4 84L8 84L8 88L44 88L44 84L48 84L48 48L44 48L44 44L40 44L40 40L12 40L12 36L16 36L16 16L36 16L36 12L40 12L40 8L44 8L44 4L8 4z"/>
    <path style="fill:#000000; stroke:none;" d="M8 8L8 12L12 12L12 16L16 16L16 12L12 12L12 8L8 8M40 8L40 12L36 12L36 16L16 16L16 36L12 36L12 40L40 40L40 44L44 44L44 40L40 40L40 36L44 36L44 32L40 32L40 28L44 28L44 24L40 24L40 20L44 20L44 16L40 16L40 12L44 12L44 8L40 8z"/>
    <path style="fill:#800000; stroke:none;" d="M44 8L44 12L48 12L48 8L44 8M40 12L40 16L44 16L44 12L40 12M36 16L36 20L40 20L40 16L36 16M44 16L44 20L48 20L48 16L44 16M40 20L40 24L44 24L44 20L40 20M36 24L36 28L40 28L40 24L36 24M44 24L44 28L48 28L48 24L44 24M40 28L40 32L44 32L44 28L40 28M36 32L36 36L40 36L40 32L36 32M44 32L44 36L48 36L48 32L44 32M40 36L40 40L44 40L44 36L40 36z"/>
    <path style="fill:#000000; stroke:none;" d="M8 40L8 44L12 44L12 40L8 40z"/>
    <path style="fill:#800000; stroke:none;" d="M44 40L44 44L48 44L48 40L44 40z"/>
    <path style="fill:#000000; stroke:none;" d="M8 48L8 52L12 52L12 56L16 56L16 76L12 76L12 80L8 80L8 84L12 84L12 80L16 80L16 76L36 76L36 80L40 80L40 84L44 84L44 80L40 80L40 76L36 76L36 56L40 56L40 52L44 52L44 48L40 48L40 52L12 52L12 48L8 48z"/>
</svg>