<svg xmlns="http://www.w3.org/2000/svg" version="1.0" width="52" height="92">
    <path style="fill:#000000; stroke:none;" d="M0 0L0 92L52 92L52 0L0 0z"/>
    <path style="fill:#ff0000; stroke:none;" d="M8 4L8 8L4 8L4 44L8 44L8 48L12 48L12 52L40 52L40 56L36 56L36 76L16 76L16 80L12 80L12 84L8 84L8 88L44 88L44 84L48 84L48 48L44 48L44 44L48 44L48 8L44 8L44 4L8 4z"/>
    <path style="fill:#000000; stroke:none;" d="M8 8L8 12L12 12L12 16L16 16L16 36L12 36L12 40L8 40L8 44L12 44L12 40L40 40L40 44L44 44L44 40L40 40L40 36L36 36L36 16L40 16L40 12L44 12L44 8L40 8L40 12L36 12L36 16L16 16L16 12L12 12L12 8L8 8z"/>
    <path style="fill:#800000; stroke:none;" d="M4 48L4 52L8 52L8 56L4 56L4 60L8 60L8 64L4 64L4 68L8 68L8 72L4 72L4 76L8 76L8 80L4 80L4 84L8 84L8 80L12 80L12 76L16 76L16 72L12 72L12 68L16 68L16 64L12 64L12 60L16 60L16 56L12 56L12 52L8 52L8 48L4 48z"/>
    <path style="fill:#000000; stroke:none;" d="M8 48L8 52L12 52L12 48L8 48M40 48L40 52L44 52L44 48L40 48M12 52L12 56L16 56L16 60L12 60L12 64L16 64L16 68L12 68L12 72L16 72L16 76L36 76L36 56L40 56L40 52L12 52M8 56L8 60L12 60L12 56L8 56M8 64L8 68L12 68L12 64L8 64M8 72L8 76L12 76L12 72L8 72M12 76L12 80L16 80L16 76L12 76M36 76L36 80L40 80L40 84L44 84L44 80L40 80L40 76L36 76M8 80L8 84L12 84L12 80L8 80z"/>
</svg>