<svg xmlns="http://www.w3.org/2000/svg" version="1.0" width="52" height="92">
    <path style="fill:#000000; stroke:none;" d="M0 0L0 92L52 92L52 0L0 0z"/>
    <path style="fill:#ff0000; stroke:none;" d="M8 4L8 8L4 8L4 44L8 44L8 40L12 40L12 36L16 36L16 16L36 16L36 36L40 36L40 40L44 40L44 44L48 44L48 8L44 8L44 4L8 4z"/>
    <path style="fill:#000000; stroke:none;" d="M8 8L8 12L12 12L12 16L16 16L16 12L12 12L12 8L8 8M40 8L40 12L36 12L36 16L40 16L40 12L44 12L44 8L40 8z"/>
    <path style="fill:#800000; stroke:none;" d="M16 40L16 44L12 44L12 48L16 48L16 52L20 52L20 48L24 48L24 52L28 52L28 48L32 48L32 52L36 52L36 48L40 48L40 44L36 44L36 40L32 40L32 44L28 44L28 40L24 40L24 44L20 44L20 40L16 40z"/>
    <path style="fill:#000000; stroke:none;" d="M16 44L16 48L20 48L20 44L16 44M24 44L24 48L28 48L28 44L24 44M32 44L32 48L36 48L36 44L32 44z"/>
    <path style="fill:#ff0000; stroke:none;" d="M4 48L4 84L8 84L8 88L44 88L44 84L48 84L48 48L44 48L44 52L40 52L40 56L36 56L36 76L16 76L16 56L12 56L12 52L8 52L8 48L4 48z"/>
    <path style="fill:#000000; stroke:none;" d="M12 76L12 80L8 80L8 84L12 84L12 80L16 80L16 76L12 76M36 76L36 80L40 80L40 84L44 84L44 80L40 80L40 76L36 76z"/>
</svg>