<svg xmlns="http://www.w3.org/2000/svg" version="1.0" width="52" height="92">
    <path style="fill:#000000; stroke:none;" d="M0 0L0 92L52 92L52 0L0 0z"/>
    <path style="fill:#ff0000; stroke:none;" d="M8 4L8 8L12 8L12 12L16 12L16 16L36 16L36 36L40 36L40 40L12 40L12 44L8 44L8 48L4 48L4 84L8 84L8 88L44 88L44 84L40 84L40 80L36 80L36 76L16 76L16 56L12 56L12 52L40 52L40 48L44 48L44 44L48 44L48 8L44 8L44 4L8 4z"/>
    <path style="fill:#800000; stroke:none;" d="M4 8L4 12L8 12L8 16L4 16L4 20L8 20L8 24L4 24L4 28L8 28L8 32L4 32L4 36L8 36L8 40L4 40L4 44L8 44L8 40L12 40L12 36L16 36L16 32L12 32L12 28L16 28L16 24L12 24L12 20L16 20L16 16L12 16L12 12L8 12L8 8L4 8z"/>
    <path style="fill:#000000; stroke:none;" d="M8 8L8 12L12 12L12 8L8 8M40 8L40 12L36 12L36 16L40 16L40 12L44 12L44 8L40 8M12 12L12 16L16 16L16 12L12 12M8 16L8 20L12 20L12 16L8 16M16 16L16 20L12 20L12 24L16 24L16 28L12 28L12 32L16 32L16 36L12 36L12 40L40 40L40 36L36 36L36 16L16 16M8 24L8 28L12 28L12 24L8 24M8 32L8 36L12 36L12 32L8 32M8 40L8 44L12 44L12 40L8 40M40 40L40 44L44 44L44 40L40 40M8 48L8 52L12 52L12 48L8 48M40 48L40 52L12 52L12 56L16 56L16 76L36 76L36 80L40 80L40 84L44 84L44 80L40 80L40 76L44 76L44 72L40 72L40 68L44 68L44 64L40 64L40 60L44 60L44 56L40 56L40 52L44 52L44 48L40 48z"/>
    <path style="fill:#800000; stroke:none;" d="M44 48L44 52L48 52L48 48L44 48M40 52L40 56L44 56L44 52L40 52M36 56L36 60L40 60L40 56L36 56M44 56L44 60L48 60L48 56L44 56M40 60L40 64L44 64L44 60L40 60M36 64L36 68L40 68L40 64L36 64M44 64L44 68L48 68L48 64L44 64M40 68L40 72L44 72L44 68L40 68M36 72L36 76L40 76L40 72L36 72M44 72L44 76L48 76L48 72L44 72z"/>
    <path style="fill:#000000; stroke:none;" d="M12 76L12 80L8 80L8 84L12 84L12 80L16 80L16 76L12 76z"/>
    <path style="fill:#800000; stroke:none;" d="M40 76L40 80L44 80L44 76L40 76M44 80L44 84L48 84L48 80L44 80z"/>
</svg>