<svg xmlns="http://www.w3.org/2000/svg" version="1.0" width="64" height="64">
    <path style="fill:#ffffff; stroke:none;" d="M0 0L0 64L64 0L0 0z"/>
    <path style="fill:#919191; stroke:none;" d="M64 64L64 0L0 64L64 64z"/>
    <path style="fill:#c0c0c0; stroke:none;" d="M8 8L8 56L56 56L56 8L8 8z"/>
    <path style="fill:#000000; stroke:none;" d="M24 12L24 16L20 16L20 24L28 24L28 16L36 16L36 28L32 28L32 32L28 32L28 40L36 40L36 32L40 32L40 28L44 28L44 16L40 16L40 12L24 12M28 44L28 52L36 52L36 44L28 44z"/>
</svg>