<svg xmlns="http://www.w3.org/2000/svg" version="1.0" width="64" height="64">
    <path style="fill:#808080; stroke:none;" d="M0 0L0 64L64 64L64 60L4 60L4 0L0 0z"/>
    <path style="fill:#c0c0c0; stroke:none;" d="M4 0L4 60L64 60L64 0L4 0z"/>
    <path style="fill:#000000; stroke:none;" d="M32 4L32 12L24 12L24 20L32 20L32 28L36 28L36 24L40 24L40 20L44 20L44 12L36 12L36 4L32 4z"/>
    <path style="fill:#ff0000; stroke:none;" d="M8 8L8 12L12 12L12 16L16 16L16 20L20 20L20 24L24 24L24 28L28 28L28 36L24 36L24 40L20 40L20 44L16 44L16 48L12 48L12 52L8 52L8 56L16 56L16 52L20 52L20 48L24 48L24 44L28 44L28 40L32 40L32 36L36 36L36 40L40 40L40 44L44 44L44 48L48 48L48 52L52 52L52 56L60 56L60 52L56 52L56 48L52 48L52 44L48 44L48 40L44 40L44 36L40 36L40 28L44 28L44 24L48 24L48 20L52 20L52 16L56 16L56 12L60 12L60 8L52 8L52 12L48 12L48 16L44 16L44 20L40 20L40 24L36 24L36 28L32 28L32 24L28 24L28 20L24 20L24 16L20 16L20 12L16 12L16 8L8 8z"/>
    <path style="fill:#000000; stroke:none;" d="M16 20L16 28L8 28L8 32L16 32L16 40L24 40L24 36L28 36L28 28L24 28L24 24L20 24L20 20L16 20z"/>
    <path style="fill:#ffffff; stroke:none;" d="M28 20L28 24L32 24L32 20L28 20z"/>
    <path style="fill:#000000; stroke:none;" d="M48 20L48 24L44 24L44 28L40 28L40 36L44 36L44 40L52 40L52 32L60 32L60 28L52 28L52 20L48 20M32 36L32 40L28 40L28 44L24 44L24 48L32 48L32 56L36 56L36 48L44 48L44 44L40 44L40 40L36 40L36 36L32 36z"/>
</svg>